<svg id="Layer_1" data-name="Layer 1" xmlns="http://www.w3.org/2000/svg" xmlns:xlink="http://www.w3.org/1999/xlink" viewBox="0 0 426.6 426.6"><defs><style>.cls-1{fill:#f7f8f8;}.cls-2{fill:url(#linear-gradient);}.cls-3{fill:url(#linear-gradient-2);}.cls-4{fill:url(#linear-gradient-3);}.cls-5{fill:url(#linear-gradient-4);}.cls-6{fill:url(#linear-gradient-5);}.cls-7{fill:url(#linear-gradient-6);}.cls-8{fill:url(#linear-gradient-7);}</style><linearGradient id="linear-gradient" x1="157.92" y1="387.15" x2="418.92" y2="387.15" gradientUnits="userSpaceOnUse"><stop offset="0" stop-color="#9fc9eb"/><stop offset="1" stop-color="#cce6f8"/></linearGradient><linearGradient id="linear-gradient-2" x1="306.29" y1="335.5" x2="458.44" y2="335.5" gradientUnits="userSpaceOnUse"><stop offset="0" stop-color="#fec131"/><stop offset="1" stop-color="#faa635"/></linearGradient><linearGradient id="linear-gradient-3" x1="228.15" y1="94.95" x2="255.15" y2="94.95" xlink:href="#linear-gradient-2"/><linearGradient id="linear-gradient-4" x1="448.99" y1="244.51" x2="497.28" y2="244.51" gradientTransform="translate(311.47 -262.94) rotate(45)" xlink:href="#linear-gradient-2"/><linearGradient id="linear-gradient-5" x1="348.09" y1="229.11" x2="405.21" y2="229.11" xlink:href="#linear-gradient-2"/><linearGradient id="linear-gradient-6" x1="461.49" y1="441.85" x2="497.47" y2="441.85" gradientTransform="translate(452.87 -209.63) rotate(45)" xlink:href="#linear-gradient-2"/><linearGradient id="linear-gradient-7" x1="259.07" y1="239.43" x2="295.05" y2="239.43" gradientTransform="translate(250.45 -125.78) rotate(45)" xlink:href="#linear-gradient-2"/></defs><rect class="cls-1" width="426.6" height="426.6" rx="26.18"/><path class="cls-2" d="M418.92,421.23a49.49,49.49,0,0,1-49.5,49.5h-162a49.5,49.5,0,0,1-5-98.75l11.2-1.1.93-11.22a61.56,61.56,0,0,1,61-56.09h4.32a61.27,61.27,0,0,1,61,55.83L342,371.73h27.39a49.48,49.48,0,0,1,49.5,49.5Z" transform="translate(-136.52 -110.52)"/><path class="cls-3" d="M382.14,261.17h-4.32a75.87,75.87,0,0,0-65,36.4l-6.49,10.57,10,7.37A61.16,61.16,0,0,1,341,359.4L342,371.73h27.39a49.1,49.1,0,0,1,12.71,1.68c1,.27,2,.58,3.05.92q2.26.76,4.43,1.74a50.07,50.07,0,0,1,12,7.62h0c.81.68,1.59,1.4,2.35,2.14a48.87,48.87,0,0,1,8,10.07l.12.21,8.19,13.71,12.19-10.69a76.31,76.31,0,0,0,26-57.35v-4.32A76.38,76.38,0,0,0,382.14,261.17Z" transform="translate(-136.52 -110.52)"/><rect class="cls-4" x="228.15" y="66.39" width="27" height="57.12" rx="13.5"/><rect class="cls-5" x="444.57" y="231.01" width="57.12" height="27" rx="13.5" transform="translate(-170.84 295.65) rotate(-45)"/><rect class="cls-6" x="348.09" y="215.61" width="57.12" height="27" rx="13.5"/><rect class="cls-7" x="465.98" y="421.99" width="27" height="39.71" rx="13.5" transform="translate(-308.52 357.94) rotate(-45)"/><rect class="cls-8" x="263.56" y="219.57" width="27" height="39.71" rx="13.5" transform="translate(-224.68 155.52) rotate(-45)"/></svg>