<svg id="Layer_1" data-name="Layer 1" xmlns="http://www.w3.org/2000/svg" viewBox="0 0 348.66 348.66"><defs><style>.cls-1{fill:#3b97d3;}.cls-2{fill:#ffbd61;}.cls-3{fill:#ffce69;}.cls-3,.cls-4{stroke:#ffce69;}.cls-3,.cls-4,.cls-5,.cls-7{stroke-miterlimit:10;stroke-width:5px;}.cls-4,.cls-5{fill:none;}.cls-5,.cls-7{stroke:#f9f5f3;}.cls-6{fill:#fdbc60;}.cls-7{fill:#f9f5f3;}</style></defs><rect class="cls-1" width="348.66" height="348.66" rx="16.55"/><path class="cls-2" d="M138.26,298.74c3.62,8.2,1.23,16.82,1.64,25.24.12,2.43-1.94,4-4.56,3.87s-4.25-1.65-4.3-4.19c-.15-6.86,0-13.73-.11-20.6,0-1.85,2-2.57,1.87-4.32Z" transform="translate(76.76 -237.22)"/><path class="cls-3" d="M127.32,443.89c-3.79,0-7.58-.1-11.37-.06a34.19,34.19,0,0,1-7.41-.74c-9.66-4.21-13.65-11.76-13.39-22.08.12-4.74-1.22-9.33-2.79-13.8-3.75-10.62-10.71-18.77-19.62-25.4,10.32-19.2,26-31.53,47.26-36.56,3.2-.76,6.52-1,9.78-1.5.41.52.81.5,1.2,0h1.21c.12.52.34,1,.93,1A58.06,58.06,0,0,1,149,349.51a68.06,68.06,0,0,1,33.39,30.28,69.13,69.13,0,0,1,7.42,47.93,67.25,67.25,0,0,1-19.53,36c-3.31-4.55-6.82-8.89-11.46-12.21C149.31,444.75,138.64,443,127.32,443.89Z" transform="translate(76.76 -237.22)"/><path class="cls-4" d="M170.25,463.75a67.25,67.25,0,0,0,19.53-36,69.13,69.13,0,0,0-7.42-47.93A68.06,68.06,0,0,0,149,349.51a58.06,58.06,0,0,0-15.85-4.74c-.59-.07-.81-.52-.93-1,34.58-2.34,66,23.12,72.27,56.73,5.59,29.9-8.25,58-30.31,72Z" transform="translate(76.76 -237.22)"/><path class="cls-5" d="M170.25,463.75l3.9,8.73c1.92,8.35,2.14,16.63-.72,24.87a40.41,40.41,0,0,1-37.64,27c-3,0-6-.06-9-.1,5.46-1.69,11.06-3,15.9-6.3,10.36-7.12,16.58-16.66,18.12-29.3a37.94,37.94,0,0,0-6.84-27.12A39.92,39.92,0,0,0,129.23,445c-.77-.17-1.67,0-1.91-1.06,11.32-.87,22,.86,31.47,7.65C163.43,454.86,166.94,459.2,170.25,463.75Z" transform="translate(76.76 -237.22)"/><path class="cls-5" d="M72.74,381.81c8.91,6.63,15.87,14.78,19.62,25.4,1.57,4.47,2.91,9.06,2.79,13.8-.26,10.32,3.73,17.87,13.39,22.08C94.38,446,81.58,441,80.8,424.23c-.93-20.11-9.93-34.79-27-44.85-4.45-2.62-9.62-3.47-14.4-5.31C51.53,372.33,62.46,375.65,72.74,381.81Z" transform="translate(76.76 -237.22)"/><path class="cls-2" d="M235.85,418.3c-3.22,0-6.44.05-9.67,0-2.83-.06-4.73-1.85-4.8-4.36a4.47,4.47,0,0,1,4.57-4.65q10-.19,19.94,0a4.41,4.41,0,0,1,4.61,4.58c0,2.7-1.86,4.4-5,4.45S239.08,418.3,235.85,418.3Z" transform="translate(76.76 -237.22)"/><path class="cls-2" d="M199.54,473.31a4.45,4.45,0,0,1,3.44,1.55c4.49,4.48,9,8.94,13.45,13.48,2.31,2.36,2.36,5,.31,6.92s-4.47,1.67-6.7-.51c-4.53-4.45-9-9-13.48-13.45-1.58-1.58-2.17-3.42-1.18-5.49A4.12,4.12,0,0,1,199.54,473.31Z" transform="translate(76.76 -237.22)"/><path class="cls-2" d="M76.06,349.71a4.47,4.47,0,0,1-2.38,4.13,3.86,3.86,0,0,1-4.79-.4c-5.12-5-10.21-10-15.14-15.19-1.68-1.76-1.28-4,.4-5.72s4-2.15,5.72-.52c5.27,5,10.3,10.19,15.41,15.34A4.06,4.06,0,0,1,76.06,349.71Z" transform="translate(76.76 -237.22)"/><path class="cls-2" d="M199.73,354.49c-2.07-.23-3.46-1-4.28-2.51s-.94-3.31.26-4.55c5-5.23,10.11-10.41,15.37-15.39,1.73-1.64,4-1.25,5.73.45s2.13,4,.47,5.73c-5,5.26-10.19,10.32-15.38,15.39A5.85,5.85,0,0,1,199.73,354.49Z" transform="translate(76.76 -237.22)"/><path class="cls-6" d="M131,343.73c-.39.52-.79.54-1.2,0Z" transform="translate(76.76 -237.22)"/><path class="cls-7" d="M126.74,524.25q-16.53,0-33,.07-48.66,0-97.31,0c-21.44,0-39.91-12.1-47.87-31.08-13-31,8.18-66.11,41.69-69.05A9.32,9.32,0,0,1-8,424c2.38.27,2.93-.81,3.05-3.09a49.83,49.83,0,0,1,41.37-46.42c1-.16,2-.28,3-.42,4.78,1.84,10,2.69,14.4,5.31,17.06,10.06,26.06,24.74,27,44.85C81.58,441,94.38,446,108.54,443.09a34.19,34.19,0,0,0,7.41.74c3.79,0,7.58,0,11.37.06.24,1.07,1.14.89,1.91,1.06a39.92,39.92,0,0,1,24.69,16.58,37.94,37.94,0,0,1,6.84,27.12c-1.54,12.64-7.76,22.18-18.12,29.3C137.8,521.27,132.2,522.56,126.74,524.25Z" transform="translate(76.76 -237.22)"/></svg>