<svg id="Layer_1" data-name="Layer 1" xmlns="http://www.w3.org/2000/svg" viewBox="0 0 326.14 241.89"><defs><style>.cls-1{fill:#fff;}.cls-1,.cls-2{stroke:#fff;stroke-miterlimit:10;stroke-width:5px;}.cls-2{fill:none;}.cls-3{fill:#fdbc60;}</style></defs><path class="cls-1" d="M-142.18-13.94c3.8,8.61,1.29,17.67,1.72,26.5.12,2.55-2,4.17-4.78,4.06s-4.47-1.72-4.52-4.39c-.16-7.21,0-14.42-.11-21.64,0-1.93,2.1-2.69,2-4.53Z" transform="translate(347.97 16.44)"/><path class="cls-1" d="M-153.67,138.46c-4,0-8-.1-11.94-.05a35.52,35.52,0,0,1-7.77-.79c-10.15-4.41-14.34-12.35-14.07-23.18.13-5-1.27-9.79-2.93-14.49-3.93-11.15-11.24-19.7-20.6-26.66,10.84-20.17,27.3-33.11,49.63-38.39,3.36-.8,6.84-1.07,10.27-1.58.42.54.84.52,1.25,0h1.27c.13.54.36,1,1,1.09a61.4,61.4,0,0,1,16.64,5,71.54,71.54,0,0,1,35.06,31.8c8.73,15.75,11.22,32.65,7.79,50.33a70.61,70.61,0,0,1-20.5,37.83c-3.48-4.78-7.17-9.34-12-12.83C-130.58,139.37-141.78,137.56-153.67,138.46Z" transform="translate(347.97 16.44)"/><path class="cls-2" d="M-108.59,159.32a70.61,70.61,0,0,0,20.5-37.83c3.43-17.68.94-34.58-7.79-50.33a71.54,71.54,0,0,0-35.06-31.8,61.4,61.4,0,0,0-16.64-5c-.62-.08-.85-.55-1-1.09,36.31-2.46,69.3,24.27,75.89,59.57,5.86,31.39-8.66,60.84-31.83,75.62Q-106.54,163.9-108.59,159.32Z" transform="translate(347.97 16.44)"/><path class="cls-2" d="M-108.59,159.32q2,4.58,4.09,9.17c2,8.77,2.25,17.46-.76,26.11A42.43,42.43,0,0,1-144.77,223c-3.17,0-6.34-.07-9.51-.11,5.74-1.77,11.62-3.13,16.7-6.62,10.87-7.47,17.4-17.48,19-30.76A39.74,39.74,0,0,0-125.74,157a41.87,41.87,0,0,0-25.92-17.41c-.81-.18-1.75,0-2-1.12,11.89-.9,23.09.91,33,8C-115.76,150-112.07,154.54-108.59,159.32Z" transform="translate(347.97 16.44)"/><path class="cls-2" d="M-211,73.29c9.36,7,16.67,15.51,20.6,26.66,1.66,4.7,3.06,9.51,2.93,14.49-.27,10.83,3.92,18.77,14.07,23.18-14.87,3-28.31-2.21-29.13-19.79-1-21.12-10.43-36.54-28.35-47.1C-235.52,68-241,67.09-246,65.15-233.25,63.33-221.77,66.81-211,73.29Z" transform="translate(347.97 16.44)"/><path class="cls-1" d="M-39.71,111.6c-3.38,0-6.77.05-10.15,0-3-.07-5-2-5-4.58a4.69,4.69,0,0,1,4.8-4.88c7-.15,14-.14,20.94,0a4.62,4.62,0,0,1,4.83,4.81c0,2.84-1.94,4.62-5.21,4.67S-36.32,111.6-39.71,111.6Z" transform="translate(347.97 16.44)"/><path class="cls-1" d="M-77.84,169.35A4.74,4.74,0,0,1-74.22,171c4.71,4.71,9.45,9.39,14.11,14.15,2.43,2.49,2.48,5.25.33,7.27s-4.7,1.76-7-.53c-4.75-4.67-9.43-9.42-14.15-14.13-1.66-1.66-2.27-3.59-1.24-5.76A4.35,4.35,0,0,1-77.84,169.35Z" transform="translate(347.97 16.44)"/><path class="cls-1" d="M-207.49,39.58a4.73,4.73,0,0,1-2.5,4.34,4,4,0,0,1-5-.42c-5.39-5.23-10.73-10.51-15.9-15.95-1.77-1.86-1.35-4.21.41-6s4.19-2.26,6-.54c5.53,5.22,10.82,10.7,16.18,16.1A4.27,4.27,0,0,1-207.49,39.58Z" transform="translate(347.97 16.44)"/><path class="cls-1" d="M-77.63,44.6c-2.18-.24-3.64-1-4.5-2.64s-1-3.48.27-4.78C-76.58,31.7-71.25,26.26-65.72,21c1.81-1.72,4.22-1.31,6,.48s2.24,4.18.5,6C-64.45,33-69.91,38.35-75.36,43.67A6.21,6.21,0,0,1-77.63,44.6Z" transform="translate(347.97 16.44)"/><path class="cls-3" d="M-149.83,33.3c-.41.54-.83.56-1.25,0Z" transform="translate(347.97 16.44)"/><path class="cls-1" d="M-154.28,222.84c-11.56,0-23.13.07-34.69.07q-51.09,0-102.18,0c-22.51-.05-41.89-12.71-50.25-32.64-13.66-32.55,8.59-69.41,43.77-72.5a9.46,9.46,0,0,1,1.9-.17c2.5.28,3.08-.86,3.21-3.26A52.31,52.31,0,0,1-249.09,65.6c1-.18,2.08-.3,3.12-.45,5,1.94,10.45,2.83,15.11,5.58,17.92,10.56,27.37,26,28.35,47.1.82,17.58,14.26,22.82,29.13,19.79a35.52,35.52,0,0,0,7.77.79c4,0,8,0,11.94.05.26,1.13,1.2.94,2,1.12A41.87,41.87,0,0,1-125.74,157a39.74,39.74,0,0,1,7.18,28.47c-1.62,13.28-8.15,23.29-19,30.76C-142.66,219.71-148.54,221.07-154.28,222.84Z" transform="translate(347.97 16.44)"/></svg>