<svg id="Layer_1" data-name="Layer 1" xmlns="http://www.w3.org/2000/svg" viewBox="0 0 171.64 134.04"><defs><style>.cls-1{fill:#fff;}</style></defs><path class="cls-1" d="M229.07,515.12a31.91,31.91,0,0,0-31.88-31.88h-1.8a31.65,31.65,0,0,0-23.78,10.64,36.65,36.65,0,0,0-17.12-4.21h-1.8a36.91,36.91,0,0,0-36.12,29.4,32.15,32.15,0,0,0-15,8.44,32,32,0,0,0,22.6,54.57h67.69a32,32,0,0,0,29.46-44.37,31.85,31.85,0,0,0,7.73-20.79Zm-33.68-20.6h1.8a20.62,20.62,0,0,1,20.6,20.6v1.8a20.55,20.55,0,0,1-3.09,10.84l-.13-.13c-.3-.3-.59-.59-.9-.87l-.15-.14c-.34-.32-.69-.62-1.05-.92l-.24-.2c-.34-.28-.69-.56-1-.82l-.08-.07c-.37-.28-.76-.55-1.14-.81l-.27-.18c-.39-.26-.78-.52-1.18-.76l0,0q-.59-.36-1.2-.69L207,522c-.41-.22-.83-.44-1.25-.64l-.14-.07c-.38-.18-.77-.36-1.17-.53l-.27-.12c-.43-.18-.86-.35-1.3-.51l-.22-.08-1.17-.39-.26-.09-1.34-.38-.28-.07-1.21-.28-.22-.05-1.38-.25-.31,0c-.43-.07-.86-.12-1.29-.17l-.15,0c-.47,0-.94-.08-1.41-.1l-.34,0c-.47,0-.95,0-1.43,0H190.4c-.11-.48-.24-.95-.37-1.43,0-.15-.08-.29-.13-.44-.09-.33-.19-.67-.3-1l-.15-.47-.37-1a3.62,3.62,0,0,1-.13-.35c-.18-.46-.36-.91-.55-1.35l-.14-.32c-.15-.35-.31-.69-.47-1l-.22-.45-.46-.91-.23-.42c-.21-.38-.42-.76-.64-1.14a1,1,0,0,1-.08-.14q-.37-.63-.78-1.23l-.25-.38c-.19-.29-.39-.57-.59-.85l-.3-.42c-.21-.29-.42-.57-.64-.85l-.26-.33c-.3-.38-.61-.76-.93-1.13l-.21-.23-.78-.87-.35-.36-.34-.36A20.44,20.44,0,0,1,195.39,494.52Zm11.11,70.22a20.58,20.58,0,0,1-14.62,6.06H124.19a20.68,20.68,0,0,1-2.07-41.26l4.68-.46.38-4.69A25.72,25.72,0,0,1,152.69,501h1.8A25.57,25.57,0,0,1,180,524.28l.45,5.15h11.45a20.15,20.15,0,0,1,2.69.18,20.83,20.83,0,0,1,15.08,9.93,20.67,20.67,0,0,1-3.15,25.2Z" transform="translate(-92.23 -448.04)"/><rect class="cls-1" x="97.67" width="11.28" height="23.87" rx="5.64"/><rect class="cls-1" x="223.28" y="470.64" width="23.87" height="11.28" rx="5.64" transform="translate(-360.12 -142.22) rotate(-45)"/><rect class="cls-1" x="147.78" y="62.35" width="23.86" height="11.28" rx="5.64"/><rect class="cls-1" x="232.22" y="550.43" width="11.28" height="16.59" rx="5.64" transform="translate(-417.64 -116.2) rotate(-45)"/><rect class="cls-1" x="147.65" y="465.86" width="11.28" height="16.59" rx="5.64" transform="translate(-382.61 -200.77) rotate(-45)"/></svg>